# xmcd CD database file
#
# Track frame offsets:
#	150
#	42738
#	76677
#	101374
#	124600
#	155555
#	195760
#	218408
#	235510
#	247078
#
# Disc length: 3944 seconds
#
# Revision: 0
# Processed by: cddbd v1.5.2PL0 Copyright (c) Steve Scherf et al.
# Submitted via: CDex 1.70beta3
#
DISCID=710f660a
DTITLE=Saitoh Tetsu - Travessia
DYEAR=2016
DGENRE=Jazz
TTITLE0=王女メディアのテーマ
TTITLE1=組曲『ストーンアウト』より「序章」・「とんび」・「終章」
TTITLE2=Invitation
TTITLE3=組曲『浸水の森』より「夜」
TTITLE4=Naquelle Tempo -- あの頃（ビシンギーニャ）
TTITLE5=バロンミンガス
TTITLE6=エスクアロ （アストル・ピアソラ）
TTITLE7=アルマンド （バッハ無伴奏チェロ組曲6番より）
TTITLE8=霧の中の風景
TTITLE9=Toda Mi Vida -- インプロヴィゼーション
EXTD=YEAR: 2016
EXTT0=
EXTT1=
EXTT2=
EXTT3=
EXTT4=
EXTT5=
EXTT6=
EXTT7=
EXTT8=
EXTT9=
PLAYORDER=
